<svg xmlns="http://www.w3.org/2000/svg" viewBox="0 0 32 32" width="32" height="32">
  <defs>
    <radialGradient id="rg" cx="50%" cy="50%" r="50%">
      <stop offset="0%" style="stop-color:#93c5fd"/>
      <stop offset="100%" style="stop-color:#2563eb"/>
    </radialGradient>
  </defs>
  <rect width="32" height="32" rx="6" fill="#1a1d24"/>
  <path d="M16 16 m13 0 a13 13 0 0 1 -9 10" stroke="#3b82f6" stroke-width="1.2" fill="none" opacity="0.3" stroke-linecap="round"/>
  <path d="M16 16 m10 -4 a11 11 0 0 1 -11 10" stroke="#60a5fa" stroke-width="1.4" fill="none" opacity="0.45" stroke-linecap="round"/>
  <path d="M16 16 m6 -8 a10 10 0 0 1 -12 6" stroke="#60a5fa" stroke-width="1.4" fill="none" opacity="0.4" stroke-linecap="round"/>
  <path d="M16 16 m-13 0 a13 13 0 0 1 9 -10" stroke="#3b82f6" stroke-width="1.2" fill="none" opacity="0.3" stroke-linecap="round"/>
  <path d="M16 16 m-10 4 a11 11 0 0 1 11 -10" stroke="#60a5fa" stroke-width="1.4" fill="none" opacity="0.45" stroke-linecap="round"/>
  <path d="M16 16 m-6 8 a10 10 0 0 1 12 -6" stroke="#60a5fa" stroke-width="1.4" fill="none" opacity="0.4" stroke-linecap="round"/>
  <circle cx="16" cy="16" r="3" stroke="#bfdbfe" stroke-width="1.2" fill="none" opacity="0.8"/>
  <circle cx="16" cy="16" r="1.5" fill="url(#rg)"/>
</svg>
